<svg width="16" height="17" viewBox="0 0 16 17" fill="none" xmlns="http://www.w3.org/2000/svg">
<path d="M0 8.86327C0 10.9923 0.842855 13.034 2.34315 14.5395C3.84344 16.0449 5.87827 16.8906 8 16.8906C10.1217 16.8906 12.1566 16.0449 13.6569 14.5395C15.1571 13.034 16 10.9923 16 8.86327C16 6.73429 15.1571 4.69251 13.6569 3.18709C12.1566 1.68167 10.1217 0.835938 8 0.835938C5.87827 0.835938 3.84344 1.68167 2.34315 3.18709C0.842855 4.69251 0 6.73429 0 8.86327ZM8.78125 12.9083C8.4875 13.2031 8.0125 13.2031 7.72188 12.9083C7.43125 12.6135 7.42813 12.1369 7.72188 11.8453L9.94063 9.61897L4.25 9.61584C3.83437 9.61584 3.5 9.28032 3.5 8.86327C3.5 8.44623 3.83437 8.11071 4.25 8.11071H9.94063L7.72188 5.88438C7.42813 5.58962 7.42813 5.113 7.72188 4.82138C8.01562 4.52977 8.49063 4.52663 8.78125 4.82138L12.2812 8.33021C12.575 8.62496 12.575 9.10158 12.2812 9.3932L8.78125 12.9083Z" fill="#86C232"/>
</svg>
