<svg width="16" height="16" viewBox="0 0 16 16" fill="none" xmlns="http://www.w3.org/2000/svg">
<path d="M0 8C0 5.87827 0.842855 3.84344 2.34315 2.34315C3.84344 0.842854 5.87827 0 8 0C10.1217 0 12.1566 0.842854 13.6569 2.34315C15.1571 3.84344 16 5.87827 16 8C16 10.1217 15.1571 12.1566 13.6569 13.6569C12.1566 15.1571 10.1217 16 8 16C5.87827 16 3.84344 15.1571 2.34315 13.6569C0.842855 12.1566 0 10.1217 0 8ZM7.53125 4.21875C7.2375 3.925 6.7625 3.925 6.47188 4.21875C6.18125 4.5125 6.17813 4.9875 6.47188 5.27812L9.19063 7.99687L6.47188 10.7156C6.17813 11.0094 6.17813 11.4844 6.47188 11.775C6.76562 12.0656 7.24062 12.0688 7.53125 11.775L10.7812 8.53125C11.075 8.2375 11.075 7.7625 10.7812 7.47188L7.53125 4.21875Z" fill="white"/>
</svg>
