<svg width="19" height="16" viewBox="0 0 19 16" fill="none" xmlns="http://www.w3.org/2000/svg">
<path d="M5.28314 0.0429811C5.07167 0.109762 4.81938 0.291556 4.70066 0.462219C4.51516 0.729344 4.48919 0.870327 4.48919 1.59008V2.25418H3.82137C3.02 2.25418 2.85305 2.29871 2.55995 2.58809C2.27056 2.88119 2.22604 3.04814 2.22604 3.84951V4.51733H1.55823C0.975749 4.51733 0.868157 4.52846 0.690073 4.59524C0.445209 4.68428 0.196634 4.91431 0.0816216 5.15175L0 5.3187V10.2605V15.206L0.0890417 15.3804C0.204054 15.6104 0.456339 15.8405 0.690073 15.9295C0.864447 15.9963 1.06479 16 7.23464 16H13.5974L13.7903 15.8998C14.0278 15.7737 14.217 15.5808 14.3283 15.3544C14.4062 15.1986 14.4136 15.1244 14.4248 14.4715L14.4359 13.7628L15.1482 13.748C15.957 13.7331 16.072 13.7035 16.3577 13.4141C16.6434 13.1321 16.6768 13.0171 16.6879 12.2083L16.7027 11.4997L17.4114 11.4848C18.0458 11.4737 18.1423 11.4663 18.2981 11.3921C18.5095 11.2956 18.7396 11.0619 18.8546 10.8319L18.9399 10.6575V6.76192V2.86635L18.862 2.69568C18.747 2.44711 18.5392 2.23563 18.2981 2.11691L18.0866 2.01303L14.6696 2.0019L11.2526 1.99077L10.9076 1.26731C10.5181 0.4548 10.3845 0.273005 10.0617 0.113473L9.85024 0.00959015L7.64275 0.00217056C5.91756 -0.00524902 5.40186 0.00588036 5.28314 0.0429811ZM9.95783 1.87205C10.3697 2.69939 10.4958 2.87006 10.7963 3.01104C10.9633 3.08895 10.9967 3.08895 14.3951 3.1075L17.8269 3.12605L17.838 6.75079L17.8454 10.3792H17.2704H16.6953V7.80445C16.6953 5.48566 16.6879 5.21111 16.6323 5.03674C16.5506 4.78074 16.2761 4.48023 16.0201 4.36522L15.8235 4.27617L12.4176 4.26504L9.01547 4.25391L8.62963 3.48593C8.21781 2.66971 8.11022 2.52502 7.79115 2.35807C7.63162 2.27644 7.5871 2.27273 6.61506 2.2616L5.60221 2.25047V1.67541V1.10406H7.5871H9.57199L9.95783 1.87205ZM7.69098 4.10922C8.08054 4.91431 8.21781 5.10723 8.52203 5.25934L8.70012 5.35209L12.1431 5.36322L15.5823 5.37064V9.00651V12.6424H15.0072H14.4322V10.0453C14.4322 7.51507 14.4285 7.44457 14.3543 7.24794C14.2615 6.99937 14.0352 6.7545 13.7829 6.63207L13.5974 6.53932L10.173 6.52819L6.74862 6.52077L6.3739 5.75278C5.77658 4.52846 5.75432 4.51733 4.30368 4.51733H3.33906V3.94227V3.36721H5.33508H7.33481L7.69098 4.10922ZM5.46494 6.4243C5.90272 7.30359 5.99548 7.4186 6.37019 7.55959C6.56312 7.63008 6.65587 7.63379 9.94299 7.63379H13.3192V11.2697V14.9055H7.19754H1.07592V10.2679V5.63035H3.07194H5.06425L5.46494 6.4243Z" fill="#86C232"/>
<path d="M9.6573 12.5287C9.41615 12.64 9.34937 12.781 9.34937 13.1817C9.34937 13.4488 9.36421 13.5378 9.42357 13.638C9.63875 13.9905 10.1025 13.9905 10.3622 13.638C10.4661 13.497 10.4921 13.0704 10.4067 12.8478C10.288 12.5287 9.95782 12.3877 9.6573 12.5287Z" fill="#86C232"/>
<path d="M11.2782 12.5396C11.0334 12.6658 10.9629 12.8105 10.9629 13.2075C10.9629 13.4746 10.9777 13.5451 11.0408 13.6341C11.3153 14.0014 11.7754 13.9903 11.998 13.6081C12.1056 13.4264 12.1093 12.9403 12.0017 12.7548C11.9238 12.6213 11.6604 12.458 11.5194 12.458C11.4786 12.458 11.3673 12.4951 11.2782 12.5396Z" fill="#86C232"/>
</svg>
