<svg width="16" height="16" viewBox="0 0 16 16" fill="none" xmlns="http://www.w3.org/2000/svg">
<path d="M0 7.83272C0 5.75572 0.842855 3.76379 2.34315 2.29513C3.84344 0.826469 5.87827 0.00138474 8 0.00138474C10.1217 0.00138474 12.1566 0.826469 13.6569 2.29513C15.1571 3.76379 16 5.75572 16 7.83272C16 9.90972 15.1571 11.9017 13.6569 13.3703C12.1566 14.839 10.1217 15.6641 8 15.6641C5.87827 15.6641 3.84344 14.839 2.34315 13.3703C0.842855 11.9017 0 9.90972 0 7.83272ZM7.53125 4.13119C7.2375 3.84364 6.7625 3.84364 6.47188 4.13119C6.18125 4.41875 6.17813 4.88373 6.47188 5.16823L9.19063 7.82966L6.47188 10.4911C6.17813 10.7787 6.17813 11.2436 6.47188 11.5281C6.76562 11.8126 7.24062 11.8157 7.53125 11.5281L10.7812 8.35277C11.075 8.06522 11.075 7.60023 10.7812 7.31573L7.53125 4.13119Z" fill="#86C232"/>
</svg>
