<svg width="60" height="60" viewBox="0 0 60 60" fill="none" xmlns="http://www.w3.org/2000/svg">
<path d="M24.2553 49.2764V25.205C24.2553 24.1801 23.3872 23.3303 22.3404 23.3303H21.7021V15.7064C21.7021 10.0572 19.1234 4.78288 14.6042 1.23346C13.8894 0.708638 12.9191 0.708638 12.2043 1.23346C7.68513 4.78291 5.10638 10.0572 5.10638 15.7064V23.3303H4.46808C3.42135 23.3303 2.55319 24.1801 2.55319 25.205V32.7039C2.55319 33.7286 3.42135 34.5786 4.46808 34.5786C5.51482 34.5786 6.38298 33.7286 6.38298 32.7039V27.0797H20.4255V40.8277H6.38298V40.2028C6.38298 39.1778 5.51482 38.328 4.46808 38.328C3.42135 38.328 2.55319 39.1778 2.55319 40.2028V49.2764C1.02133 50.3012 0 52.0009 0 53.9507C0 57.0502 2.57875 59.5749 5.74468 59.5749H12.1277C13.1744 59.5749 14.0426 58.7249 14.0426 57.7002C14.0426 56.6752 13.1744 55.8254 12.1277 55.8254H5.74468C4.69795 55.8254 3.82979 54.9755 3.82979 53.9507C3.82979 52.9258 4.69795 52.076 5.74468 52.076H21.0638C22.1106 52.076 22.9787 52.9258 22.9787 53.9507C22.9787 54.9755 22.1106 55.8254 21.0638 55.8254H19.7872C18.7405 55.8254 17.8723 56.6752 17.8723 57.7002C17.8723 58.7249 18.7405 59.5749 19.7872 59.5749H21.0638C24.2298 59.5749 26.8085 57.0502 26.8085 53.9507C26.8085 52.0009 25.7872 50.3012 24.2553 49.2764ZM17.8723 23.3303H8.93617V19.5808H17.8723V23.3303ZM17.8723 15.8314H8.93617V15.7064C8.93617 11.732 10.5447 7.98251 13.4043 5.20795C16.2638 7.98251 17.8723 11.732 17.8723 15.7064V15.8314ZM20.4255 48.3266H6.38298V44.5771H20.4255V48.3266Z" fill="#86C232"/>
<path d="M58.0851 29.5789C59.1318 29.5789 60 28.7289 60 27.7042V21.4551C60 14.2311 54.0001 8.33203 46.5958 8.33203C39.1914 8.33203 33.1915 14.2311 33.1915 21.4551V42.7019C33.1915 43.7267 34.0597 44.5767 35.1064 44.5767H35.7447V48.3261H35.1064C34.0597 48.3261 33.1915 49.1759 33.1915 50.2008V57.6997C33.1915 58.7245 34.0597 59.5744 35.1064 59.5744H40.2128C41.2595 59.5744 42.1277 58.7245 42.1277 57.6997C42.1277 56.6748 41.2595 55.825 40.2128 55.825H37.0213V52.0755H56.1702V55.825H47.8723C46.8256 55.825 45.9575 56.6748 45.9575 57.6997C45.9575 58.7245 46.8256 59.5744 47.8723 59.5744H58.0851C59.1318 59.5744 60 58.7245 60 57.6997V50.2008C60 49.1759 59.1318 48.3261 58.0851 48.3261H57.4468V44.5767H58.0851C59.1318 44.5767 60 43.7267 60 42.7019V35.203C60 34.1781 59.1318 33.3283 58.0851 33.3283C57.0384 33.3283 56.1702 34.1781 56.1702 35.203V40.8272H37.0213V24.5796H56.1702V27.7042C56.1702 28.7289 57.0384 29.5789 58.0851 29.5789ZM39.5745 44.5767H53.617V48.3261H39.5745V44.5767ZM37.098 20.8302C37.4297 15.9559 41.5405 12.0815 46.5958 12.0815C51.651 12.0815 55.7618 15.9559 56.0935 20.8302H37.098Z" fill="#86C232"/>
</svg>
