<svg width="16" height="19" viewBox="0 0 16 19" fill="none" xmlns="http://www.w3.org/2000/svg">
<path d="M5.42857 0.857143C5.42857 0.382143 5.04643 0 4.57143 0C4.09643 0 3.71429 0.382143 3.71429 0.857143V2.28571H2.28571C1.025 2.28571 0 3.31071 0 4.57143V5.14286V6.85714V16C0 17.2607 1.025 18.2857 2.28571 18.2857H13.7143C14.975 18.2857 16 17.2607 16 16V6.85714V5.14286V4.57143C16 3.31071 14.975 2.28571 13.7143 2.28571H12.2857V0.857143C12.2857 0.382143 11.9036 0 11.4286 0C10.9536 0 10.5714 0.382143 10.5714 0.857143V2.28571H5.42857V0.857143ZM1.71429 6.85714H4.57143V8.85714H1.71429V6.85714ZM1.71429 10.5714H4.57143V12.8571H1.71429V10.5714ZM6.28571 10.5714H9.71429V12.8571H6.28571V10.5714ZM11.4286 10.5714H14.2857V12.8571H11.4286V10.5714ZM14.2857 8.85714H11.4286V6.85714H14.2857V8.85714ZM14.2857 14.5714V16C14.2857 16.3143 14.0286 16.5714 13.7143 16.5714H11.4286V14.5714H14.2857ZM9.71429 14.5714V16.5714H6.28571V14.5714H9.71429ZM4.57143 14.5714V16.5714H2.28571C1.97143 16.5714 1.71429 16.3143 1.71429 16V14.5714H4.57143ZM9.71429 8.85714H6.28571V6.85714H9.71429V8.85714Z" fill="#86C232"/>
</svg>
