<svg width="60" height="60" viewBox="0 0 60 60" fill="none" xmlns="http://www.w3.org/2000/svg">
<path d="M58.0851 42.1277C59.1423 42.1277 60 41.27 60 40.2128V14.6809C60 13.1951 58.5938 12.832 57.4942 12.4655C48.2538 9.38498 39.3351 5.28341 30.9849 0.273026C30.3815 -0.0910085 29.6185 -0.0910085 29.0151 0.273026C20.6649 5.28341 11.7462 9.38498 2.50583 12.4655C1.38411 12.8394 0 13.214 0 14.681C0 14.7938 0 55.5319 0 55.5319C0 57.9953 2.00466 60 4.46808 60H55.5319C57.9953 60 60 57.9953 60 55.5319V47.8724C60 46.8152 59.1423 45.9575 58.0851 45.9575C57.0279 45.9575 56.1702 46.8152 56.1702 47.8724V55.5319C56.1702 55.8835 55.8835 56.1702 55.5319 56.1702H46.3556C38.9224 47.7405 34.187 38.6805 32.3113 29.2109C32.0277 27.8087 31.9308 25.5316 29.9997 25.5319C28.0414 25.5321 27.9732 27.8076 27.6886 29.2194C25.813 38.6806 21.0775 47.7405 13.6444 56.1702H4.46808C4.11651 56.1702 3.82979 55.8835 3.82979 55.5319V16.0609C12.933 13.0178 21.7295 9.01099 30 4.14272C38.2705 9.01099 47.067 13.0178 56.1702 16.0609V40.2128C56.1702 41.27 57.0279 42.1277 58.0851 42.1277ZM30 35.6113C32.2499 42.7635 36.0509 49.6467 41.3292 56.1702H18.6712C23.9511 49.6448 27.7521 42.7616 30 35.6113Z" fill="#86C232"/>
<path d="M30 20.8488C31.0571 20.8488 31.9149 19.9911 31.9149 18.9339V17.4454H33.4034C34.4606 17.4454 35.3183 16.5877 35.3183 15.5305C35.3183 14.4733 34.4606 13.6156 33.4034 13.6156H31.9149V12.1258C31.9149 11.0687 31.0571 10.2109 30 10.2109C28.9428 10.2109 28.0851 11.0687 28.0851 12.1258V13.6156H26.5965C25.5394 13.6156 24.6816 14.4733 24.6816 15.5305C24.6816 16.5877 25.5394 17.4454 26.5965 17.4454H28.0851V18.9339C28.0851 19.9911 28.9428 20.8488 30 20.8488Z" fill="#86C232"/>
<path d="M9.57444 22.9766C8.51727 22.9766 7.65955 23.8343 7.65955 24.8915V35.1042C7.65955 36.1614 8.51727 37.0191 9.57444 37.0191H19.7872C20.8444 37.0191 21.7021 36.1614 21.7021 35.1042V24.8915C21.7021 23.8343 20.8444 22.9766 19.7872 22.9766H9.57444ZM17.8723 33.1893H11.4893V26.8063H17.8723V33.1893Z" fill="#86C232"/>
<path d="M40.2127 22.9766C39.1556 22.9766 38.2979 23.8343 38.2979 24.8915V35.1042C38.2979 36.1614 39.1556 37.0191 40.2127 37.0191H50.4255C51.4827 37.0191 52.3404 36.1614 52.3404 35.1042V24.8915C52.3404 23.8343 51.4827 22.9766 50.4255 22.9766H40.2127ZM48.5106 33.1893H42.1276V26.8063H48.5106V33.1893Z" fill="#86C232"/>
</svg>
