<svg width="60" height="60" viewBox="0 0 60 60" fill="none" xmlns="http://www.w3.org/2000/svg">
<path d="M58.0851 0.839844H50.4255C49.3788 0.839844 48.5106 1.68955 48.5106 2.71437V3.33921H27.4468C26.4001 3.33921 25.5319 4.18892 25.5319 5.21373C25.5319 6.23839 26.4001 7.08825 27.4468 7.08825H48.5106V18.3354H14.0426V7.08825H19.7872C20.834 7.08825 21.7021 6.23839 21.7021 5.21373C21.7021 4.18892 20.834 3.33921 19.7872 3.33921H12.1277C11.0809 3.33921 10.2128 4.18892 10.2128 5.21373V5.83857H3.82979V5.21373C3.82979 4.18892 2.96163 3.33921 1.91489 3.33921C0.868162 3.33921 0 4.18892 0 5.21373V20.2099C0 21.2346 0.868162 22.0844 1.91489 22.0844C2.96163 22.0844 3.82979 21.2346 3.82979 20.2099V19.5851H10.2128V20.2099C10.2128 21.2346 11.0809 22.0844 12.1277 22.0844H15.4723C16.0595 26.6333 18.8681 30.5822 22.9787 32.8067C23.0298 35.5809 24.7404 37.9553 27.1915 39.005L18.6127 55.8258H14.6809C13.6341 55.8258 12.766 56.6755 12.766 57.7004C12.766 58.725 13.6341 59.5749 14.6809 59.5749H19.7872C20.5022 59.5749 21.1659 59.1749 21.4978 58.5251L28.0851 45.6534V57.7004C28.0851 58.725 28.9533 59.5749 30 59.5749C31.0467 59.5749 31.9149 58.725 31.9149 57.7004V45.6534L38.5022 58.525C38.8341 59.1749 39.4978 59.5749 40.2128 59.5749H45.3191C46.3659 59.5749 47.234 58.725 47.234 57.7004C47.234 56.6755 46.3659 55.8258 45.3191 55.8258H41.3873L32.8084 39.005C35.2595 37.9553 36.9957 35.5561 37.0213 32.7566C38.2467 32.1069 39.4212 31.357 40.3915 30.3823C42.6893 28.1078 44.0681 25.2086 44.5021 22.0844H48.5106V22.7093C48.5106 23.7339 49.3788 24.5838 50.4255 24.5838H58.0851C59.1318 24.5838 60 23.7339 60 22.7093V2.71437C60 1.68955 59.1318 0.839844 58.0851 0.839844ZM10.2128 15.836H3.82979V9.58762H10.2128V15.836ZM30 35.8309C28.2383 35.8309 26.8085 34.4313 26.8085 32.7067C26.8085 30.9822 28.2383 29.5825 30 29.5825C31.7617 29.5825 33.1915 30.9822 33.1915 32.7067C33.1915 34.4313 31.7617 35.8309 30 35.8309ZM37.6851 27.733C37.1745 28.2328 36.5617 28.6828 35.949 29.0826C34.6979 27.133 32.5021 25.8335 30 25.8335C27.4979 25.8335 25.302 27.133 24.051 29.0826C21.5745 27.483 19.8639 24.9586 19.3277 22.0844H40.6723C40.2894 24.2088 39.2681 26.1584 37.6851 27.733ZM56.1702 20.8348H52.3404V4.58889H56.1702V20.8348Z" fill="#86C232"/>
</svg>
