<svg width="60" height="60" viewBox="0 0 60 60" fill="none" xmlns="http://www.w3.org/2000/svg">
<path d="M58.0849 5.83857H57.4465V2.71437C57.4465 1.68955 56.5783 0.839844 55.5314 0.839844C54.4846 0.839844 53.6163 1.68955 53.6163 2.71437V5.83857H9.56914C8.90521 5.83857 8.26684 6.18851 7.93489 6.73832L6.32621 9.38764L3.26216 6.38836C2.52156 5.66359 1.29595 5.66359 0.55534 6.38836C-0.185113 7.11327 -0.185113 8.31292 0.55534 9.03768L4.28344 12.6868L0.274485 19.2351C-0.108432 19.86 -0.0830255 20.6348 0.325605 21.2596L5.43253 28.7577C5.79006 29.2576 6.37731 29.5825 7.01567 29.5825H9.7479L8.5477 34.8562C8.31796 35.8559 8.95633 36.8556 10.0032 37.0806C11.0246 37.3055 12.0459 36.6556 12.2758 35.656L13.6546 29.5825H22.4897L18.251 48.3277H9.41593L10.616 42.9541C10.8459 41.9544 10.2075 40.9546 9.16066 40.7296C8.1392 40.5047 7.11776 41.1296 6.88803 42.1542C6.88803 42.1542 5.15949 49.7679 5.15172 49.8022C5.12415 49.9237 5.10058 50.0774 5.10058 50.2023V57.7004C5.10058 58.725 5.96883 59.5749 7.01567 59.5749H21.0597C24.226 59.5749 26.805 57.0505 26.805 53.9513C26.805 51.2269 24.7878 48.9276 22.1577 48.4277L24.1495 39.58H31.9375C34.6186 39.58 37.0188 38.1303 38.2189 35.7809L41.3853 29.5825H44.0409C47.2071 29.5825 49.7862 27.0581 49.7862 23.959C49.7862 23.3091 49.6841 22.6592 49.4542 22.0844H58.0849C59.1317 22.0844 60 21.2346 60 20.2099V7.71309C60 6.68828 59.1317 5.83857 58.0849 5.83857ZM22.9748 53.9513C22.9748 54.976 22.1066 55.8258 21.0597 55.8258H8.93077V52.0768H21.0597C22.1066 52.0768 22.9748 52.9265 22.9748 53.9513ZM31.9119 9.58762H35.7421V18.3354H31.9119V9.58762ZM24.2515 9.58762H28.0817V18.3354H24.2515V9.58762ZM5.27935 18.3354L10.6416 9.58762H20.4213V18.3354H5.27935ZM34.7973 34.0814C34.2611 35.1561 33.1631 35.8309 31.9375 35.8309H25.0175L26.4219 29.5825H29.3585V30.2074C29.3585 31.232 30.2267 32.0819 31.2736 32.0819C32.3204 32.0819 33.1887 31.232 33.1887 30.2074V29.5825H37.0955L34.7973 34.0814ZM44.0409 25.8335H8.03711L5.48365 22.0844H44.0409C45.0877 22.0844 45.956 22.9341 45.956 23.959C45.956 24.9836 45.0877 25.8335 44.0409 25.8335ZM56.1698 18.3354H39.5723V9.58762H56.1698V18.3354Z" fill="#86C232"/>
</svg>
