<svg width="60" height="60" viewBox="0 0 60 60" fill="none" xmlns="http://www.w3.org/2000/svg">
<path d="M58.0851 48.5056H57.4468V42.761C57.4468 35.4333 54.5872 28.5397 49.4042 23.3566C44.6808 18.6333 38.5277 15.8502 31.9149 15.4162V13.297C31.9149 13.297 41.0478 8.73065 41.0554 8.72687C42.4546 8.02724 42.4546 6.00511 41.0554 5.30551C41.0554 5.30551 30.8845 0.2073 30.8682 0.19913C29.6143 -0.429364 28.0851 0.508628 28.0851 1.9099V15.4162C13.8382 16.412 2.55319 28.2843 2.55319 42.761V48.5056H1.91489C0.868162 48.5056 0 49.3736 0 50.4205V58.0801C0 59.1268 0.868162 59.995 1.91489 59.995H12.1277C13.1744 59.995 14.0426 59.1268 14.0426 58.0801C14.0426 57.0332 13.1744 56.1652 12.1277 56.1652H3.82979V52.3354H56.1702V56.1652H19.7872C18.7405 56.1652 17.8723 57.0332 17.8723 58.0801C17.8723 59.1268 18.7405 59.995 19.7872 59.995H58.0851C59.1318 59.995 60 59.1268 60 58.0801V50.4205C60 49.3736 59.1318 48.5056 58.0851 48.5056ZM31.9149 4.99916L35.9234 7.01628L31.9149 9.03325V4.99916ZM35.7447 48.5056H24.2553V37.0163H35.7447V48.5056ZM24.2553 33.1865V29.3567H28.0851V33.1865H24.2553ZM35.7447 33.1865H31.9149V29.3567H35.7447V33.1865ZM53.617 48.5056H39.5745V27.4418C39.5745 26.3949 38.7063 25.5269 37.6596 25.5269H22.3404C21.2937 25.5269 20.4255 26.3949 20.4255 27.4418V48.5056H6.38298V42.761C6.38298 29.7396 16.9788 19.1439 30 19.1439C36.3063 19.1439 42.2297 21.5949 46.6978 26.063C51.1659 30.5311 53.617 36.4545 53.617 42.761V48.5056Z" fill="#86C232"/>
</svg>
