<svg width="60" height="73" viewBox="0 0 60 73" fill="none" xmlns="http://www.w3.org/2000/svg">
<path d="M57.6923 13.8462C58.9663 13.8462 60 12.8125 60 11.5385V5.41166C60 2.42788 57.5841 0 54.6154 0H5.38462C2.41588 0 0 2.42788 0 5.41166V50.3335C0 52.1424 0.892431 53.8251 2.38883 54.8317L27.0042 71.3912C28.7891 72.592 31.2113 72.5915 32.9958 71.3912L57.6112 54.8317C59.1076 53.8251 60 52.1424 60 50.3335V20.7692C60 19.4952 58.9663 18.4615 57.6923 18.4615C56.4183 18.4615 55.3846 19.4952 55.3846 20.7692V50.3335C55.3846 50.604 55.2524 50.8564 55.033 51.0036L30.4177 67.5631C30.1653 67.7374 29.8347 67.7314 29.5823 67.5631L4.96695 51.0036C4.7476 50.8564 4.61538 50.604 4.61538 50.3335V5.41166C4.61538 4.97295 4.96092 4.61539 5.38462 4.61539H54.6154C55.0391 4.61539 55.3846 4.97295 55.3846 5.41166V11.5385C55.3846 12.8125 56.4183 13.8462 57.6923 13.8462Z" fill="#86C232"/>
<path d="M11.5385 39.9997C10.2644 39.9997 9.23077 41.0334 9.23077 42.3074V47.079C9.23077 47.8483 9.61237 48.5634 10.2494 48.9931L28.7109 61.415C29.4563 61.9164 30.5476 61.9538 31.289 61.415L49.7506 48.9931C50.3876 48.5634 50.7692 47.8483 50.7692 47.079V11.5382C50.7692 10.2641 49.7355 9.23047 48.4615 9.23047H11.5385C10.2644 9.23047 9.23077 10.2641 9.23077 11.5382V33.0766C9.23077 34.3507 10.2644 35.3843 11.5385 35.3843C12.8125 35.3843 13.8462 34.3507 13.8462 33.0766V13.8459H46.1539V45.8501L30 56.7185L13.8462 45.8501V42.3074C13.8462 41.0334 12.8125 39.9997 11.5385 39.9997Z" fill="#86C232"/>
<path d="M28.72 28.8425C29.4799 29.349 30.5203 29.349 31.2801 28.8425L40.5109 22.6886C41.5716 21.9825 41.857 20.5492 41.1509 19.4885C40.4448 18.4278 39.0145 18.1423 37.9508 18.8485L30.0001 24.1489L22.0494 18.8485C20.9887 18.1423 19.5554 18.4278 18.8493 19.4885C18.1431 20.5492 18.4286 21.9825 19.4893 22.6886L28.72 28.8425Z" fill="#86C232"/>
<path d="M19.4892 31.9191L28.72 38.0729C29.4831 38.5815 30.5175 38.5813 31.2801 38.0729L40.5109 31.9191C41.5716 31.213 41.857 29.7797 41.1509 28.719C40.4448 27.6582 39.0145 27.3728 37.9508 28.0789L30.0001 33.3794L22.0494 28.0789C20.9887 27.3728 19.5554 27.6582 18.8493 28.719C18.1431 29.7797 18.4286 31.2129 19.4892 31.9191Z" fill="#86C232"/>
<path d="M19.4892 41.1521L28.72 47.306C29.4832 47.8145 30.5171 47.8147 31.2801 47.306L40.5109 41.1521C41.5716 40.446 41.857 39.0127 41.1509 37.952C40.4448 36.8913 39.0145 36.6089 37.9508 37.312L30.0001 42.6125L22.0494 37.312C20.9887 36.6088 19.5554 36.8913 18.8493 37.952C18.1431 39.0127 18.4286 40.446 19.4892 41.1521Z" fill="#86C232"/>
</svg>
