<svg width="60" height="73" viewBox="0 0 60 73" fill="none" xmlns="http://www.w3.org/2000/svg">
<g opacity="0.7">
<path d="M57.6923 29.2308C58.9538 29.2308 60 28.1845 60 26.9231V17.6923C60 14.7384 57.5693 12.3077 54.6154 12.3077H53.8462V5.38461C53.8462 4.12298 52.7999 3.07692 51.5385 3.07692C50.277 3.07692 49.2308 4.12298 49.2308 5.38461V12.3077H44.6154V8.46154C44.6154 7.19991 43.5691 6.15385 42.3077 6.15385C41.0462 6.15385 40 7.19991 40 8.46154V12.3077H13.8462V6.92308C13.8462 3.10772 10.7384 0 6.92308 0C3.10772 0 0 3.10772 0 6.92308V42.3077C0 42.6769 0.0923999 43.0153 0.246215 43.323L3.07692 49.0154V66.9231C3.07692 69.8768 5.50763 72.3077 8.46154 72.3077H51.5385C54.4924 72.3077 56.9231 69.8768 56.9231 66.9231V49.0154L59.7538 43.3229C59.9076 43.0153 60 42.6769 60 42.3077V36.1538C60 34.8922 58.9538 33.8462 57.6923 33.8462C56.4309 33.8462 55.3846 34.8922 55.3846 36.1538V41.7539L52.5539 47.4461C52.4001 47.7537 52.3077 48.0923 52.3077 48.4615V66.9231C52.3077 67.3539 51.9693 67.6923 51.5385 67.6923H8.46154C8.03074 67.6923 7.69231 67.3539 7.69231 66.9231V48.4615C7.69231 48.0923 7.59991 47.7537 7.44609 47.4461L4.61538 41.7539V17.6923C4.61538 17.2615 4.95382 16.9231 5.38462 16.9231H54.6154C55.0462 16.9231 55.3846 17.2615 55.3846 17.6923V26.9231C55.3846 28.1845 56.4309 29.2308 57.6923 29.2308ZM9.23077 12.3077H5.38462C5.1076 12.3077 4.8616 12.3385 4.61538 12.3999V6.92308C4.61538 5.66145 5.66163 4.61538 6.92308 4.61538C8.18452 4.61538 9.23077 5.66145 9.23077 6.92308V12.3077Z" fill="#86C232"/>
<path d="M47.6923 33.0775V23.8468C47.6923 22.5727 46.6586 21.5391 45.3846 21.5391H14.6154C13.3413 21.5391 12.3077 22.5727 12.3077 23.8468V33.0775C12.3077 34.3516 13.3413 35.3852 14.6154 35.3852H45.3846C46.6586 35.3852 47.6923 34.3516 47.6923 33.0775ZM43.0769 30.7698H16.9231V26.1544H43.0769V30.7698Z" fill="#86C232"/>
<path d="M42.3077 40H17.6923C16.4183 40 15.3846 41.0337 15.3846 42.3077C15.3846 43.5817 16.4183 44.6154 17.6923 44.6154H42.3077C43.5818 44.6154 44.6154 43.5817 44.6154 42.3077C44.6154 41.0337 43.5818 40 42.3077 40Z" fill="#86C232"/>
<path d="M42.3077 49.2305H17.6923C16.4183 49.2305 15.3846 50.2641 15.3846 51.5382C15.3846 52.8122 16.4183 53.8459 17.6923 53.8459H42.3077C43.5818 53.8459 44.6154 52.8122 44.6154 51.5382C44.6154 50.2641 43.5818 49.2305 42.3077 49.2305Z" fill="#86C232"/>
<path d="M42.3077 58.4609H17.6923C16.4183 58.4609 15.3846 59.4946 15.3846 60.7686C15.3846 62.0427 16.4183 63.0763 17.6923 63.0763H42.3077C43.5818 63.0763 44.6154 62.0427 44.6154 60.7686C44.6154 59.4946 43.5818 58.4609 42.3077 58.4609Z" fill="#86C232"/>
</g>
</svg>
