<svg width="45" height="59" viewBox="0 0 45 59" fill="none" xmlns="http://www.w3.org/2000/svg">
<path d="M29.9365 17.8008L31.5552 12.1306C32.3755 9.26318 31.8164 6.25292 30.0195 3.87132C28.2226 1.49097 25.4834 0.125 22.5 0.125C19.5166 0.125 16.7773 1.49097 14.9805 3.87135C13.1836 6.25295 12.6245 9.2632 13.4448 12.1306L15.0635 17.8008C6.90917 18.9836 0.625 26.0222 0.625 34.5V57C0.625 58.0351 1.46485 58.875 2.5 58.875H10C11.0351 58.875 11.875 58.0351 11.875 57C11.875 55.9648 11.0351 55.125 10 55.125H4.375V34.5C4.375 27.2624 10.2637 21.375 17.5 21.375C18.7211 21.375 19.6417 20.1598 19.3017 18.9849L17.0483 11.1003C16.0283 7.53147 18.802 3.875 22.5 3.875C26.2045 3.875 28.969 7.53955 27.9516 11.1003C27.9516 11.1003 25.7008 18.9759 25.6982 18.9849C25.3609 20.1651 26.2749 21.375 27.5 21.375C34.7363 21.375 40.625 27.2624 40.625 34.5V55.125H17.5C16.4648 55.125 15.625 55.9648 15.625 57C15.625 58.0351 16.4648 58.875 17.5 58.875H42.5C43.5351 58.875 44.375 58.0351 44.375 57V34.5C44.375 26.0222 38.0908 18.9836 29.9365 17.8008Z" fill="#86C232"/>
<path d="M22.5 11.375C23.5355 11.375 24.375 10.5355 24.375 9.5C24.375 8.46447 23.5355 7.625 22.5 7.625C21.4645 7.625 20.625 8.46447 20.625 9.5C20.625 10.5355 21.4645 11.375 22.5 11.375Z" fill="#86C232"/>
<path d="M22.5 42C25.2564 42 27.5 39.7576 27.5 37C27.5 34.2424 25.2564 32 22.5 32C19.7436 32 17.5 34.2424 17.5 37C17.5 39.7576 19.7436 42 22.5 42ZM22.5 35.75C23.1885 35.75 23.75 36.3103 23.75 37C23.75 37.6897 23.1885 38.25 22.5 38.25C21.8115 38.25 21.25 37.6897 21.25 37C21.25 36.3103 21.8115 35.75 22.5 35.75Z" fill="#86C232"/>
<path d="M20.625 25.3147C15.5856 26.1226 11.6226 30.0857 10.8147 35.125H10C8.96485 35.125 8.125 35.9649 8.125 37C8.125 38.0351 8.96485 38.875 10 38.875H10.8147C11.6226 43.9144 15.5857 47.8774 20.625 48.6853V49.5C20.625 50.5352 21.4649 51.375 22.5 51.375C23.5351 51.375 24.375 50.5352 24.375 49.5V48.6853C29.4144 47.8774 33.3774 43.9144 34.1853 38.875H35C36.0352 38.875 36.875 38.0351 36.875 37C36.875 35.9649 36.0352 35.125 35 35.125H34.1853C33.3774 30.0856 29.4144 26.1226 24.375 25.3147V24.5C24.375 23.4649 23.5351 22.625 22.5 22.625C21.4649 22.625 20.625 23.4649 20.625 24.5V25.3147ZM22.5 28.875C26.98 28.875 30.625 32.52 30.625 37C30.625 41.48 26.98 45.125 22.5 45.125C18.02 45.125 14.375 41.48 14.375 37C14.375 32.52 18.02 28.875 22.5 28.875Z" fill="#86C232"/>
</svg>
