<svg width="60" height="60" viewBox="0 0 60 60" fill="none" xmlns="http://www.w3.org/2000/svg">
<path d="M57.4468 29.285V27.708C57.4468 12.8924 45.1346 0.839844 30 0.839844C24.0783 0.839844 18.4483 2.65213 13.7209 6.08266C12.8707 6.69895 12.6911 7.87295 13.322 8.70404C13.9503 9.53393 15.1471 9.71088 15.9998 9.09457C20.064 6.14734 24.9061 4.58889 30 4.58889C43.0228 4.58889 53.617 14.9598 53.617 27.708V28.3328H47.8723C46.8152 28.3328 45.9574 29.1725 45.9574 30.2074C45.9574 31.2423 46.8152 32.0819 47.8723 32.0819H54.2553C55.31 32.0819 56.1702 32.9239 56.1702 33.9564C56.1702 34.9889 55.31 35.8309 54.2553 35.8309H33.6104C32.4335 35.8309 31.2841 36.2971 30.4513 37.1124L24.2877 43.146C24.1681 43.2631 24.0035 43.329 23.8364 43.329H5.74468C4.68998 43.329 3.82979 42.487 3.82979 41.4545C3.82979 40.422 4.68998 39.58 5.74468 39.58H21.2833C22.4601 39.58 23.6095 39.1138 24.4423 38.2986L30.6059 32.2649C30.7256 32.149 30.8901 32.0819 31.0572 32.0819H40.2128C41.2699 32.0819 42.1277 31.2423 42.1277 30.2074C42.1277 29.1725 41.2699 28.3328 40.2128 28.3328H31.0572C29.8803 28.3328 28.7309 28.8002 27.8981 29.6143L21.7346 35.6479C21.6149 35.765 21.4503 35.8309 21.2833 35.8309H8.23085C7.02049 33.242 6.38298 30.5164 6.38298 27.708C6.38298 22.719 7.97374 17.979 10.9857 14.003C11.6165 13.1707 11.437 11.9967 10.5868 11.3804C9.74152 10.7641 8.53974 10.9386 7.90892 11.7697C4.40576 16.3974 2.55319 21.9087 2.55319 27.708C2.55319 30.5759 3.11341 33.3685 4.18243 36.0692C1.77746 36.7409 0 38.8883 0 41.4545C0 44.5543 2.57814 47.0781 5.74468 47.0781H16.7022L28.0851 53.7638V55.8258H27.4468C26.3896 55.8258 25.5319 56.6655 25.5319 57.7004C25.5319 58.7352 26.3896 59.5749 27.4468 59.5749H30H37.6596H40.2128C41.2699 59.5749 42.1277 58.7352 42.1277 57.7004C42.1277 56.6655 41.2699 55.8258 40.2128 55.8258H39.5745V39.58H54.2553C57.4219 39.58 60 37.0562 60 33.9564C60 32.0113 58.9846 30.2952 57.4468 29.285ZM24.1043 47.0518C25.1856 46.9865 26.2266 46.5493 26.9955 45.7966L28.0851 44.73V49.39L24.1043 47.0518ZM35.7447 55.8258H31.9149V40.981L33.1591 39.7631C33.2788 39.6459 33.4433 39.58 33.6104 39.58H35.7447V55.8258Z" fill="#86C232"/>
</svg>
