<svg width="289" height="92" viewBox="0 0 289 92" fill="none" xmlns="http://www.w3.org/2000/svg">
<rect width="289" height="92" fill="#86C232"/>
<path d="M85.26 43V25.99H90.972C91.994 25.99 92.834 26.186 93.492 26.578C94.15 26.956 94.64 27.516 94.962 28.258C95.284 28.986 95.445 29.875 95.445 30.925C95.445 32.241 95.228 33.249 94.794 33.949C94.36 34.635 93.772 35.111 93.03 35.377C92.288 35.643 91.455 35.776 90.531 35.776H89.019V43H85.26ZM89.019 33.151H90.279C90.741 33.151 91.091 33.067 91.329 32.899C91.567 32.731 91.721 32.479 91.791 32.143C91.875 31.807 91.917 31.38 91.917 30.862C91.917 30.428 91.882 30.05 91.812 29.728C91.756 29.392 91.609 29.126 91.371 28.93C91.133 28.734 90.762 28.636 90.258 28.636H89.019V33.151ZM97.2571 43V25.99H104.901V28.552H101.016V32.773H103.977V35.377H101.016V40.459H104.943V43H97.2571ZM106.65 43V25.99H111.333C112.481 25.99 113.475 26.116 114.315 26.368C115.155 26.62 115.806 27.075 116.268 27.733C116.744 28.377 116.982 29.294 116.982 30.484C116.982 31.184 116.926 31.807 116.814 32.353C116.702 32.899 116.492 33.375 116.184 33.781C115.89 34.173 115.463 34.502 114.903 34.768L117.234 43H113.349L111.48 35.377H110.409V43H106.65ZM110.409 33.214H111.459C111.991 33.214 112.404 33.123 112.698 32.941C112.992 32.745 113.195 32.472 113.307 32.122C113.433 31.758 113.496 31.324 113.496 30.82C113.496 30.092 113.363 29.525 113.097 29.119C112.831 28.713 112.341 28.51 111.627 28.51H110.409V33.214ZM119.178 43L119.472 25.99H123.504L125.373 35.881L127.389 25.99H131.274L131.568 43H128.901L128.586 31.681L126.612 43H124.239L122.139 31.597L121.887 43H119.178ZM134.049 43V25.99H137.808V43H134.049ZM141.877 43V28.783H139.315V25.99H148.198V28.783H145.657V43H141.877ZM159.941 43.252C158.653 43.252 157.631 43.021 156.875 42.559C156.133 42.083 155.608 41.425 155.3 40.585C154.992 39.731 154.838 38.73 154.838 37.582V31.45C154.838 30.274 154.992 29.266 155.3 28.426C155.608 27.572 156.133 26.914 156.875 26.452C157.631 25.99 158.653 25.759 159.941 25.759C161.201 25.759 162.181 25.969 162.881 26.389C163.595 26.795 164.099 27.369 164.393 28.111C164.687 28.853 164.834 29.707 164.834 30.673V32.143H161.159V30.442C161.159 30.106 161.138 29.784 161.096 29.476C161.068 29.168 160.97 28.916 160.802 28.72C160.634 28.51 160.347 28.405 159.941 28.405C159.549 28.405 159.255 28.51 159.059 28.72C158.877 28.93 158.758 29.196 158.702 29.518C158.66 29.826 158.639 30.155 158.639 30.505V38.506C158.639 38.884 158.667 39.234 158.723 39.556C158.793 39.864 158.919 40.116 159.101 40.312C159.297 40.494 159.577 40.585 159.941 40.585C160.333 40.585 160.613 40.487 160.781 40.291C160.949 40.081 161.054 39.815 161.096 39.493C161.138 39.171 161.159 38.842 161.159 38.506V36.721H164.834V38.191C164.834 39.157 164.687 40.025 164.393 40.795C164.113 41.551 163.616 42.153 162.902 42.601C162.202 43.035 161.215 43.252 159.941 43.252ZM166.902 43V25.99H174.546V28.552H170.661V32.773H173.622V35.377H170.661V40.459H174.588V43H166.902ZM176.294 43V25.99H180.977C182.125 25.99 183.119 26.116 183.959 26.368C184.799 26.62 185.45 27.075 185.912 27.733C186.388 28.377 186.626 29.294 186.626 30.484C186.626 31.184 186.57 31.807 186.458 32.353C186.346 32.899 186.136 33.375 185.828 33.781C185.534 34.173 185.107 34.502 184.547 34.768L186.878 43H182.993L181.124 35.377H180.053V43H176.294ZM180.053 33.214H181.103C181.635 33.214 182.048 33.123 182.342 32.941C182.636 32.745 182.839 32.472 182.951 32.122C183.077 31.758 183.14 31.324 183.14 30.82C183.14 30.092 183.007 29.525 182.741 29.119C182.475 28.713 181.985 28.51 181.271 28.51H180.053V33.214ZM190.255 43V28.783H187.693V25.99H196.576V28.783H194.035V43H190.255ZM198.094 43V25.99H201.853V43H198.094ZM204.39 43V25.99H211.74V28.531H208.149V32.815H211.278V35.44H208.149V43H204.39ZM213.516 43V25.99H217.275V43H213.516ZM224.684 43.252C223.396 43.252 222.374 43.021 221.618 42.559C220.876 42.083 220.351 41.425 220.043 40.585C219.735 39.731 219.581 38.73 219.581 37.582V31.45C219.581 30.274 219.735 29.266 220.043 28.426C220.351 27.572 220.876 26.914 221.618 26.452C222.374 25.99 223.396 25.759 224.684 25.759C225.944 25.759 226.924 25.969 227.624 26.389C228.338 26.795 228.842 27.369 229.136 28.111C229.43 28.853 229.577 29.707 229.577 30.673V32.143H225.902V30.442C225.902 30.106 225.881 29.784 225.839 29.476C225.811 29.168 225.713 28.916 225.545 28.72C225.377 28.51 225.09 28.405 224.684 28.405C224.292 28.405 223.998 28.51 223.802 28.72C223.62 28.93 223.501 29.196 223.445 29.518C223.403 29.826 223.382 30.155 223.382 30.505V38.506C223.382 38.884 223.41 39.234 223.466 39.556C223.536 39.864 223.662 40.116 223.844 40.312C224.04 40.494 224.32 40.585 224.684 40.585C225.076 40.585 225.356 40.487 225.524 40.291C225.692 40.081 225.797 39.815 225.839 39.493C225.881 39.171 225.902 38.842 225.902 38.506V36.721H229.577V38.191C229.577 39.157 229.43 40.025 229.136 40.795C228.856 41.551 228.359 42.153 227.645 42.601C226.945 43.035 225.958 43.252 224.684 43.252ZM230.826 43L234.039 25.99H238.323L241.494 43H238.029L237.462 39.409H234.963L234.375 43H230.826ZM235.299 37.162H237.105L236.202 30.526L235.299 37.162ZM243.842 43V28.783H241.28V25.99H250.163V28.783H247.622V43H243.842ZM251.66 43V25.99H259.304V28.552H255.419V32.773H258.38V35.377H255.419V40.459H259.346V43H251.66ZM85.26 70V52.99H92.61V55.531H89.019V59.815H92.148V62.44H89.019V70H85.26ZM94.3655 70V52.99H99.0485C100.196 52.99 101.19 53.116 102.03 53.368C102.87 53.62 103.521 54.075 103.983 54.733C104.459 55.377 104.697 56.294 104.697 57.484C104.697 58.184 104.641 58.807 104.529 59.353C104.417 59.899 104.207 60.375 103.899 60.781C103.605 61.173 103.178 61.502 102.618 61.768L104.949 70H101.064L99.1955 62.377H98.1245V70H94.3655ZM98.1245 60.214H99.1745C99.7065 60.214 100.119 60.123 100.413 59.941C100.707 59.745 100.91 59.472 101.022 59.122C101.148 58.758 101.211 58.324 101.211 57.82C101.211 57.092 101.078 56.525 100.812 56.119C100.546 55.713 100.056 55.51 99.3425 55.51H98.1245V60.214ZM111.665 70.252C110.391 70.252 109.383 70.028 108.641 69.58C107.899 69.132 107.367 68.488 107.045 67.648C106.723 66.808 106.562 65.807 106.562 64.645V58.324C106.562 57.148 106.723 56.147 107.045 55.321C107.367 54.495 107.899 53.865 108.641 53.431C109.383 52.983 110.391 52.759 111.665 52.759C112.953 52.759 113.968 52.983 114.71 53.431C115.466 53.865 116.005 54.495 116.327 55.321C116.649 56.147 116.81 57.148 116.81 58.324V64.645C116.81 65.807 116.649 66.808 116.327 67.648C116.005 68.488 115.466 69.132 114.71 69.58C113.968 70.028 112.953 70.252 111.665 70.252ZM111.665 67.585C112.057 67.585 112.344 67.487 112.526 67.291C112.708 67.095 112.827 66.843 112.883 66.535C112.939 66.227 112.967 65.912 112.967 65.59V57.4C112.967 57.064 112.939 56.749 112.883 56.455C112.827 56.147 112.708 55.895 112.526 55.699C112.344 55.503 112.057 55.405 111.665 55.405C111.301 55.405 111.028 55.503 110.846 55.699C110.664 55.895 110.545 56.147 110.489 56.455C110.433 56.749 110.405 57.064 110.405 57.4V65.59C110.405 65.912 110.426 66.227 110.468 66.535C110.524 66.843 110.636 67.095 110.804 67.291C110.986 67.487 111.273 67.585 111.665 67.585ZM119.035 70L119.329 52.99H123.361L125.23 62.881L127.246 52.99H131.131L131.425 70H128.758L128.443 58.681L126.469 70H124.096L121.996 58.597L121.744 70H119.035ZM139.257 70V52.99H143.688C144.416 52.99 145.102 53.046 145.746 53.158C146.404 53.27 146.985 53.487 147.489 53.809C147.993 54.117 148.385 54.565 148.665 55.153C148.959 55.727 149.106 56.49 149.106 57.442C149.106 58.128 149.001 58.709 148.791 59.185C148.595 59.647 148.308 60.018 147.93 60.298C147.566 60.578 147.125 60.767 146.607 60.865C147.265 60.949 147.818 61.166 148.266 61.516C148.714 61.852 149.05 62.307 149.274 62.881C149.512 63.455 149.631 64.148 149.631 64.96C149.631 65.842 149.512 66.605 149.274 67.249C149.05 67.879 148.721 68.397 148.287 68.803C147.853 69.209 147.314 69.51 146.67 69.706C146.04 69.902 145.312 70 144.486 70H139.257ZM143.016 67.375H143.814C144.64 67.375 145.207 67.165 145.515 66.745C145.837 66.325 145.998 65.709 145.998 64.897C145.998 64.253 145.928 63.742 145.788 63.364C145.648 62.986 145.417 62.713 145.095 62.545C144.773 62.363 144.339 62.272 143.793 62.272H143.016V67.375ZM143.016 59.794H143.751C144.325 59.794 144.759 59.71 145.053 59.542C145.347 59.36 145.543 59.101 145.641 58.765C145.753 58.429 145.809 58.023 145.809 57.547C145.809 57.099 145.725 56.728 145.557 56.434C145.403 56.126 145.165 55.895 144.843 55.741C144.535 55.587 144.143 55.51 143.667 55.51H143.016V59.794ZM156.517 70.252C155.215 70.252 154.193 70.042 153.451 69.622C152.723 69.188 152.212 68.565 151.918 67.753C151.624 66.927 151.477 65.919 151.477 64.729V52.99H155.194V65.296C155.194 65.646 155.222 65.996 155.278 66.346C155.334 66.696 155.453 66.983 155.635 67.207C155.831 67.431 156.125 67.543 156.517 67.543C156.923 67.543 157.217 67.431 157.399 67.207C157.581 66.983 157.693 66.696 157.735 66.346C157.791 65.996 157.819 65.646 157.819 65.296V52.99H161.557V64.729C161.557 65.919 161.403 66.927 161.095 67.753C160.801 68.565 160.29 69.188 159.562 69.622C158.834 70.042 157.819 70.252 156.517 70.252ZM163.948 70V52.99H167.707V67.459H171.613V70H163.948ZM173.259 70V52.99H177.018V67.459H180.924V70H173.259ZM186.921 70.252C185.857 70.252 184.968 70.063 184.254 69.685C183.54 69.307 183.001 68.726 182.637 67.942C182.273 67.144 182.07 66.115 182.028 64.855L185.241 64.372C185.255 65.1 185.318 65.688 185.43 66.136C185.556 66.584 185.724 66.906 185.934 67.102C186.158 67.298 186.424 67.396 186.732 67.396C187.124 67.396 187.376 67.263 187.488 66.997C187.614 66.731 187.677 66.451 187.677 66.157C187.677 65.457 187.509 64.869 187.173 64.393C186.837 63.903 186.382 63.413 185.808 62.923L184.338 61.642C183.694 61.096 183.148 60.48 182.7 59.794C182.266 59.094 182.049 58.233 182.049 57.211C182.049 55.769 182.476 54.67 183.33 53.914C184.184 53.144 185.346 52.759 186.816 52.759C187.726 52.759 188.454 52.913 189 53.221C189.56 53.529 189.98 53.935 190.26 54.439C190.554 54.929 190.75 55.454 190.848 56.014C190.96 56.56 191.023 57.085 191.037 57.589L187.803 57.988C187.789 57.484 187.754 57.05 187.698 56.686C187.656 56.308 187.558 56.021 187.404 55.825C187.25 55.615 187.012 55.51 186.69 55.51C186.34 55.51 186.081 55.657 185.913 55.951C185.759 56.245 185.682 56.539 185.682 56.833C185.682 57.463 185.829 57.981 186.123 58.387C186.431 58.779 186.83 59.192 187.32 59.626L188.727 60.865C189.469 61.495 190.092 62.209 190.596 63.007C191.114 63.805 191.373 64.792 191.373 65.968C191.373 66.766 191.191 67.494 190.827 68.152C190.463 68.796 189.945 69.307 189.273 69.685C188.615 70.063 187.831 70.252 186.921 70.252ZM193.193 70V52.99H200.837V55.552H196.952V59.773H199.913V62.377H196.952V67.459H200.879V70H193.193ZM204.727 70V63.049L201.493 52.99H205.042L206.659 58.366L208.108 52.99H211.51L208.339 63.049V70H204.727ZM212.942 70V52.99H220.586V55.552H216.701V59.773H219.662V62.377H216.701V67.459H220.628V70H212.942Z" fill="#222629"/>
<path d="M64.1818 40.8788C65.1757 40.8788 66 40.0545 66 39.0606V34.2121C66 31.8848 64.0849 29.9697 61.7576 29.9697H58.7273V23.9091H59.3333C60.3272 23.9091 61.1515 23.0848 61.1515 22.0909C61.1515 21.0969 60.3272 20.2727 59.3333 20.2727H54.7515C54.9697 19.6909 55.0909 19.0849 55.0909 18.4545C55.0909 15.4485 52.6424 13 49.6364 13C46.6303 13 44.1818 15.4485 44.1818 18.4545C44.1818 19.0849 44.303 19.6909 44.5212 20.2727H37.5152C37.0303 20.2727 36.5697 20.4666 36.2302 20.806L33.806 23.2302C33.103 23.9333 33.103 25.0969 33.8059 25.7999C34.488 26.482 35.6656 26.5101 36.3758 25.7999L38.2667 23.9091H40.5455V29.9697H32.6667C28.9818 29.9697 26 32.9515 26 36.6364V51.1818C26 52.1757 26.8243 53 27.8182 53C28.812 53 29.6364 52.1757 29.6364 51.1818V36.6364C29.6364 34.9636 30.9939 33.6061 32.6667 33.6061H33.3455C33.297 33.7999 33.2727 33.9939 33.2727 34.2121V65.7273C33.2727 68.0545 35.1878 69.9697 37.5152 69.9697H61.7576C64.0849 69.9697 66 68.0545 66 65.7273V46.3333C66 45.3393 65.1757 44.5152 64.1818 44.5152C63.188 44.5152 62.3636 45.3393 62.3636 46.3333V49.3636H36.9091V34.2121C36.9091 33.8727 37.1757 33.6061 37.5152 33.6061H61.7576C62.097 33.6061 62.3636 33.8727 62.3636 34.2121V39.0606C62.3636 40.0545 63.188 40.8788 64.1818 40.8788ZM62.3636 65.7273C62.3636 66.0667 62.097 66.3333 61.7576 66.3333H37.5152C37.1757 66.3333 36.9091 66.0667 36.9091 65.7273V62.697H62.3636V65.7273ZM62.3636 53V59.0606H36.9091V53H62.3636ZM49.6364 16.6364C50.6302 16.6364 51.4545 17.4605 51.4545 18.4545C51.4545 19.4484 50.6302 20.2727 49.6364 20.2727C48.6425 20.2727 47.8182 19.4484 47.8182 18.4545C47.8182 17.4605 48.6425 16.6364 49.6364 16.6364ZM55.0909 29.9697H44.1818V23.9091H55.0909V29.9697Z" fill="white"/>
</svg>
